<svg height="2158" width="720" xmlns="http://www.w3.org/2000/svg">
<rect height="2158" fill="#555" width="720"></rect>
<text fill="#7f7" font-family="Courier New" font-size="12" xml:space="preserve">
<tspan x="10" y="26">15 megabytes installed</tspan>
<tspan x="10" y="42"></tspan>
<tspan x="10" y="58">node_modules</tspan>
<tspan x="10" y="74">└─┬ w3cjs@0.3.0 </tspan>
<tspan x="10" y="90">  ├── commander@2.6.0 </tspan>
<tspan x="10" y="106">  ├─┬ superagent@0.21.0 </tspan>
<tspan x="10" y="122">  │ ├── component-emitter@1.1.2 </tspan>
<tspan x="10" y="138">  │ ├── cookiejar@2.0.1 </tspan>
<tspan x="10" y="154">  │ ├─┬ debug@2.6.4 </tspan>
<tspan x="10" y="170">  │ │ └── ms@0.7.3 </tspan>
<tspan x="10" y="186">  │ ├── extend@1.2.1 </tspan>
<tspan x="10" y="202">  │ ├─┬ form-data@0.1.3 </tspan>
<tspan x="10" y="218">  │ │ ├── async@0.9.2 </tspan>
<tspan x="10" y="234">  │ │ └─┬ combined-stream@0.0.7 </tspan>
<tspan x="10" y="250">  │ │   └── delayed-stream@0.0.5 </tspan>
<tspan x="10" y="266">  │ ├── formidable@1.0.14 </tspan>
<tspan x="10" y="282">  │ ├── methods@1.0.1 </tspan>
<tspan x="10" y="298">  │ ├── mime@1.2.11 </tspan>
<tspan x="10" y="314">  │ ├── qs@1.2.0 </tspan>
<tspan x="10" y="330">  │ ├─┬ readable-stream@1.0.27-1 </tspan>
<tspan x="10" y="346">  │ │ ├── core-util-is@1.0.2 </tspan>
<tspan x="10" y="362">  │ │ ├── inherits@2.0.3 </tspan>
<tspan x="10" y="378">  │ │ ├── isarray@0.0.1 </tspan>
<tspan x="10" y="394">  │ │ └── string_decoder@0.10.31 </tspan>
<tspan x="10" y="410">  │ └── reduce-component@1.0.1 </tspan>
<tspan x="10" y="426">  └─┬ superagent-proxy@0.3.2 </tspan>
<tspan x="10" y="442">    ├─┬ debug@2.2.0 </tspan>
<tspan x="10" y="458">    │ └── ms@0.7.1 </tspan>
<tspan x="10" y="474">    └─┬ proxy-agent@1.1.1 </tspan>
<tspan x="10" y="490">      ├─┬ http-proxy-agent@0.2.7 </tspan>
<tspan x="10" y="506">      │ ├── agent-base@1.0.2 </tspan>
<tspan x="10" y="522">      │ └── extend@3.0.0 </tspan>
<tspan x="10" y="538">      ├─┬ https-proxy-agent@0.3.6 </tspan>
<tspan x="10" y="554">      │ └── extend@3.0.0 </tspan>
<tspan x="10" y="570">      ├── lru-cache@2.5.2 </tspan>
<tspan x="10" y="586">      ├─┬ pac-proxy-agent@0.2.0 </tspan>
<tspan x="10" y="602">      │ ├─┬ get-uri@0.1.4 </tspan>
<tspan x="10" y="618">      │ │ ├── data-uri-to-buffer@0.0.4 </tspan>
<tspan x="10" y="634">      │ │ ├── extend@3.0.0 </tspan>
<tspan x="10" y="650">      │ │ ├── file-uri-to-path@0.0.2 </tspan>
<tspan x="10" y="666">      │ │ ├─┬ ftp@0.3.10 </tspan>
<tspan x="10" y="682">      │ │ │ ├── readable-stream@1.1.14 </tspan>
<tspan x="10" y="698">      │ │ │ └── xregexp@2.0.0 </tspan>
<tspan x="10" y="714">      │ │ └─┬ readable-stream@2.2.9 </tspan>
<tspan x="10" y="730">      │ │   ├── buffer-shims@1.0.0 </tspan>
<tspan x="10" y="746">      │ │   ├── isarray@1.0.0 </tspan>
<tspan x="10" y="762">      │ │   ├── process-nextick-args@1.0.7 </tspan>
<tspan x="10" y="778">      │ │   ├── string_decoder@1.0.0 </tspan>
<tspan x="10" y="794">      │ │   └── util-deprecate@1.0.2 </tspan>
<tspan x="10" y="810">      │ ├─┬ pac-resolver@1.2.6 </tspan>
<tspan x="10" y="826">      │ │ ├── co@3.0.6 </tspan>
<tspan x="10" y="842">      │ │ ├─┬ degenerator@1.0.4 </tspan>
<tspan x="10" y="858">      │ │ │ ├── ast-types@0.9.11 </tspan>
<tspan x="10" y="874">      │ │ │ ├─┬ escodegen@1.8.1 </tspan>
<tspan x="10" y="890">      │ │ │ │ ├── esprima@2.7.3 </tspan>
<tspan x="10" y="906">      │ │ │ │ ├── estraverse@1.9.3 </tspan>
<tspan x="10" y="922">      │ │ │ │ ├── esutils@2.0.2 </tspan>
<tspan x="10" y="938">      │ │ │ │ ├─┬ optionator@0.8.2 </tspan>
<tspan x="10" y="954">      │ │ │ │ │ ├── deep-is@0.1.3 </tspan>
<tspan x="10" y="970">      │ │ │ │ │ ├── fast-levenshtein@2.0.6 </tspan>
<tspan x="10" y="986">      │ │ │ │ │ ├── levn@0.3.0 </tspan>
<tspan x="10" y="1002">      │ │ │ │ │ ├── prelude-ls@1.1.2 </tspan>
<tspan x="10" y="1018">      │ │ │ │ │ ├── type-check@0.3.2 </tspan>
<tspan x="10" y="1034">      │ │ │ │ │ └── wordwrap@1.0.0 </tspan>
<tspan x="10" y="1050">      │ │ │ │ └─┬ source-map@0.2.0 </tspan>
<tspan x="10" y="1066">      │ │ │ │   └── amdefine@1.0.1 </tspan>
<tspan x="10" y="1082">      │ │ │ └── esprima@3.1.3 </tspan>
<tspan x="10" y="1098">      │ │ ├── netmask@1.0.6 </tspan>
<tspan x="10" y="1114">      │ │ ├─┬ regenerator@0.8.46 </tspan>
<tspan x="10" y="1130">      │ │ │ ├─┬ commoner@0.10.8 </tspan>
<tspan x="10" y="1146">      │ │ │ │ ├─┬ detective@4.5.0 </tspan>
<tspan x="10" y="1162">      │ │ │ │ │ ├── acorn@4.0.11 </tspan>
<tspan x="10" y="1178">      │ │ │ │ │ └── defined@1.0.0 </tspan>
<tspan x="10" y="1194">      │ │ │ │ ├─┬ glob@5.0.15 </tspan>
<tspan x="10" y="1210">      │ │ │ │ │ ├─┬ inflight@1.0.6 </tspan>
<tspan x="10" y="1226">      │ │ │ │ │ │ └── wrappy@1.0.2 </tspan>
<tspan x="10" y="1242">      │ │ │ │ │ ├─┬ minimatch@3.0.3 </tspan>
<tspan x="10" y="1258">      │ │ │ │ │ │ └─┬ brace-expansion@1.1.7 </tspan>
<tspan x="10" y="1274">      │ │ │ │ │ │   ├── balanced-match@0.4.2 </tspan>
<tspan x="10" y="1290">      │ │ │ │ │ │   └── concat-map@0.0.1 </tspan>
<tspan x="10" y="1306">      │ │ │ │ │ ├── once@1.4.0 </tspan>
<tspan x="10" y="1322">      │ │ │ │ │ └── path-is-absolute@1.0.1 </tspan>
<tspan x="10" y="1338">      │ │ │ │ ├── graceful-fs@4.1.11 </tspan>
<tspan x="10" y="1354">      │ │ │ │ ├── iconv-lite@0.4.15 </tspan>
<tspan x="10" y="1370">      │ │ │ │ ├─┬ mkdirp@0.5.1 </tspan>
<tspan x="10" y="1386">      │ │ │ │ │ └── minimist@0.0.8 </tspan>
<tspan x="10" y="1402">      │ │ │ │ ├── q@1.5.0 </tspan>
<tspan x="10" y="1418">      │ │ │ │ └─┬ recast@0.11.23 </tspan>
<tspan x="10" y="1434">      │ │ │ │   ├── ast-types@0.9.6 </tspan>
<tspan x="10" y="1450">      │ │ │ │   └── source-map@0.5.6 </tspan>
<tspan x="10" y="1466">      │ │ │ ├─┬ defs@1.1.1 </tspan>
<tspan x="10" y="1482">      │ │ │ │ ├─┬ alter@0.2.0 </tspan>
<tspan x="10" y="1498">      │ │ │ │ │ └── stable@0.1.6 </tspan>
<tspan x="10" y="1514">      │ │ │ │ ├── ast-traverse@0.1.1 </tspan>
<tspan x="10" y="1530">      │ │ │ │ ├── breakable@1.0.0 </tspan>
<tspan x="10" y="1546">      │ │ │ │ ├── esprima-fb@15001.1001.0-dev-harmony-fb </tspan>
<tspan x="10" y="1562">      │ │ │ │ ├── simple-fmt@0.1.0 </tspan>
<tspan x="10" y="1578">      │ │ │ │ ├── simple-is@0.2.0 </tspan>
<tspan x="10" y="1594">      │ │ │ │ ├── stringmap@0.2.2 </tspan>
<tspan x="10" y="1610">      │ │ │ │ ├── stringset@0.2.1 </tspan>
<tspan x="10" y="1626">      │ │ │ │ ├── tryor@0.1.2 </tspan>
<tspan x="10" y="1642">      │ │ │ │ └─┬ yargs@3.27.0 </tspan>
<tspan x="10" y="1658">      │ │ │ │   ├── camelcase@1.2.1 </tspan>
<tspan x="10" y="1674">      │ │ │ │   ├─┬ cliui@2.1.0 </tspan>
<tspan x="10" y="1690">      │ │ │ │   │ ├─┬ center-align@0.1.3 </tspan>
<tspan x="10" y="1706">      │ │ │ │   │ │ ├─┬ align-text@0.1.4 </tspan>
<tspan x="10" y="1722">      │ │ │ │   │ │ │ ├─┬ kind-of@3.1.0 </tspan>
<tspan x="10" y="1738">      │ │ │ │   │ │ │ │ └── is-buffer@1.1.5 </tspan>
<tspan x="10" y="1754">      │ │ │ │   │ │ │ ├── longest@1.0.1 </tspan>
<tspan x="10" y="1770">      │ │ │ │   │ │ │ └── repeat-string@1.6.1 </tspan>
<tspan x="10" y="1786">      │ │ │ │   │ │ └── lazy-cache@1.0.4 </tspan>
<tspan x="10" y="1802">      │ │ │ │   │ ├── right-align@0.1.3 </tspan>
<tspan x="10" y="1818">      │ │ │ │   │ └── wordwrap@0.0.2 </tspan>
<tspan x="10" y="1834">      │ │ │ │   ├── decamelize@1.2.0 </tspan>
<tspan x="10" y="1850">      │ │ │ │   ├─┬ os-locale@1.4.0 </tspan>
<tspan x="10" y="1866">      │ │ │ │   │ └─┬ lcid@1.0.0 </tspan>
<tspan x="10" y="1882">      │ │ │ │   │   └── invert-kv@1.0.0 </tspan>
<tspan x="10" y="1898">      │ │ │ │   ├── window-size@0.1.4 </tspan>
<tspan x="10" y="1914">      │ │ │ │   └── y18n@3.2.1 </tspan>
<tspan x="10" y="1930">      │ │ │ ├── esprima-fb@15001.1001.0-dev-harmony-fb </tspan>
<tspan x="10" y="1946">      │ │ │ ├── private@0.1.7 </tspan>
<tspan x="10" y="1962">      │ │ │ ├─┬ recast@0.10.33 </tspan>
<tspan x="10" y="1978">      │ │ │ │ ├── ast-types@0.8.12 </tspan>
<tspan x="10" y="1994">      │ │ │ │ ├── esprima-fb@15001.1001.0-dev-harmony-fb </tspan>
<tspan x="10" y="2010">      │ │ │ │ └── source-map@0.5.6 </tspan>
<tspan x="10" y="2026">      │ │ │ ├── regenerator-runtime@0.9.6 </tspan>
<tspan x="10" y="2042">      │ │ │ └── through@2.3.8 </tspan>
<tspan x="10" y="2058">      │ │ └── thunkify@2.1.2 </tspan>
<tspan x="10" y="2074">      │ └── stream-to-array@1.0.0 </tspan>
<tspan x="10" y="2090">      └─┬ socks-proxy-agent@1.0.2 </tspan>
<tspan x="10" y="2106">        └─┬ socks@1.1.10 </tspan>
<tspan x="10" y="2122">          ├── ip@1.1.5 </tspan>
<tspan x="10" y="2138">          └── smart-buffer@1.1.15</tspan>
</text>
</svg>
